<?xml version="1.0" encoding="iso-8859-1"?>
<!-- Uploaded to: SVG Repo, www.svgrepo.com, Generator: SVG Repo Mixer Tools -->
<svg fill="#000000" height="800px" width="800px" version="1.1" id="Layer_1" xmlns="http://www.w3.org/2000/svg" xmlns:xlink="http://www.w3.org/1999/xlink" 
	 viewBox="0 0 512 512" xml:space="preserve">
<g>
	<g>
		<path d="M249.429,214.144c-3.968-1.685-8.576-0.747-11.627,2.304l-21.333,21.333c-4.16,4.16-4.16,10.923,0,15.083
			c4.16,4.16,10.923,4.16,15.083,0l3.115-3.115V288c0,5.888,4.779,10.667,10.667,10.667S256,293.888,256.021,288v-64
			C256.021,219.691,253.419,215.787,249.429,214.144z"/>
	</g>
</g>
<g>
	<g>
		<path d="M313.429,214.144c-3.947-1.685-8.576-0.747-11.627,2.304l-21.333,21.333c-4.16,4.16-4.16,10.923,0,15.083
			c4.16,4.16,10.923,4.16,15.083,0l3.115-3.115V288c0,5.888,4.779,10.667,10.667,10.667S320,293.888,320.021,288v-64
			C320.021,219.691,317.419,215.787,313.429,214.144z"/>
	</g>
</g>
<g>
	<g>
		<path d="M377.429,214.144c-3.968-1.685-8.555-0.747-11.627,2.304l-21.333,21.333c-4.16,4.16-4.16,10.923,0,15.083
			c4.16,4.16,10.923,4.16,15.083,0l3.115-3.115V288c0,5.888,4.779,10.667,10.667,10.667c5.888,0,10.667-4.779,10.688-10.667v-64
			C384.021,219.691,381.419,215.787,377.429,214.144z"/>
	</g>
</g>
<g>
	<g>
		<path d="M181.333,213.333h-42.667c-5.888,0-10.667,4.779-10.667,10.667v64c0,5.888,4.779,10.667,10.667,10.667h42.667
			c5.888,0,10.667-4.779,10.667-10.667v-64C192,218.112,187.221,213.333,181.333,213.333z M170.667,277.333h-21.333v-42.667h21.333
			V277.333z"/>
	</g>
</g>
<g>
	<g>
		<path d="M313.429,342.144c-3.947-1.664-8.576-0.747-11.627,2.304l-21.333,21.333c-4.16,4.16-4.16,10.923,0,15.083
			c4.16,4.16,10.923,4.16,15.083,0l3.115-3.115V416c0,5.888,4.779,10.667,10.667,10.667S320,421.888,320.021,416v-64
			C320.021,347.691,317.419,343.787,313.429,342.144z"/>
	</g>
</g>
<g>
	<g>
		<path d="M377.429,342.144c-3.968-1.664-8.555-0.747-11.627,2.304l-21.333,21.333c-4.16,4.16-4.16,10.923,0,15.083
			c4.16,4.16,10.923,4.16,15.083,0l3.115-3.115V416c0,5.888,4.779,10.667,10.667,10.667c5.888,0,10.667-4.779,10.688-10.667v-64
			C384.021,347.691,381.419,343.787,377.429,342.144z"/>
	</g>
</g>
<g>
	<g>
		<path d="M164.096,342.144c-3.968-1.664-8.576-0.747-11.627,2.304l-21.333,21.333c-4.16,4.16-4.16,10.923,0,15.083
			c4.16,4.16,10.923,4.16,15.083,0l3.115-3.115V416c0,5.888,4.779,10.667,10.667,10.667s10.667-4.779,10.688-10.667v-64
			C170.688,347.691,168.085,343.787,164.096,342.144z"/>
	</g>
</g>
<g>
	<g>
		<path d="M245.333,341.333h-42.667c-5.888,0-10.667,4.779-10.667,10.667v64c0,5.888,4.779,10.667,10.667,10.667h42.667
			c5.888,0,10.667-4.779,10.667-10.667v-64C256,346.112,251.221,341.333,245.333,341.333z M234.667,405.333h-21.333v-42.667h21.333
			V405.333z"/>
	</g>
</g>
<g>
	<g>
		<path d="M437.333,0H202.667c-1.429,0-2.837,0.299-4.139,0.832c-0.405,0.171-0.704,0.491-1.067,0.725
			c-0.811,0.469-1.664,0.896-2.347,1.557l-128,128c-0.491,0.491-0.768,1.152-1.152,1.728c-0.384,0.576-0.875,1.067-1.131,1.707
			c-0.533,1.301-0.832,2.688-0.832,4.117v362.667C64,507.221,68.779,512,74.667,512h362.667c5.888,0,10.667-4.779,10.667-10.667
			V10.667C448,4.779,443.221,0,437.333,0z M192,36.416V128h-91.584L192,36.416z M426.667,490.667H85.333V149.333h117.333
			c5.888,0,10.667-4.779,10.667-10.667V21.333h213.333V490.667z"/>
	</g>
</g>
</svg>